<?xml version="1.0" standalone="no"?>
<!DOCTYPE svg PUBLIC "-//W3C//DTD SVG 20010904//EN"
 "http://www.w3.org/TR/2001/REC-SVG-20010904/DTD/svg10.dtd">
<svg version="1.0" xmlns="http://www.w3.org/2000/svg"
 width="816.000000pt" height="816.000000pt" viewBox="0 0 816.000000 816.000000"
 preserveAspectRatio="xMidYMid meet">
<metadata>
Created by potrace 1.14, written by Peter Selinger 2001-2017
</metadata>
<g transform="translate(0.000000,816.000000) scale(0.100000,-0.100000)"
fill="#000000" stroke="none">
<path d="M2159 8156 c-2 -2 -29 -7 -59 -10 -93 -9 -143 -15 -161 -21 -22 -7
-58 -16 -84 -20 -11 -2 -21 -4 -22 -5 -2 -2 -7 -4 -13 -5 -5 -1 -11 -3 -12 -4
-2 -2 -14 -4 -27 -7 -12 -2 -51 -15 -85 -29 -35 -14 -66 -25 -69 -25 -15 0
-237 -114 -298 -153 -168 -108 -342 -264 -447 -402 -25 -33 -49 -62 -52 -65
-10 -9 -101 -150 -107 -168 -4 -9 -10 -19 -13 -22 -9 -7 -85 -168 -95 -200 -4
-14 -11 -29 -15 -35 -17 -22 -87 -280 -96 -352 -3 -21 -8 -58 -12 -83 -9 -62
-9 -4894 0 -4950 5 -25 10 -58 13 -75 2 -16 6 -37 8 -45 2 -8 7 -33 11 -55 8
-41 23 -98 33 -125 3 -8 8 -21 10 -27 1 -7 5 -19 6 -25 7 -23 18 -53 28 -70 5
-10 9 -23 9 -29 0 -31 148 -306 188 -347 6 -7 12 -18 12 -23 0 -5 9 -20 20
-32 11 -12 42 -49 69 -83 48 -60 131 -146 207 -215 60 -54 261 -199 277 -199
4 0 24 -11 45 -24 20 -12 40 -24 44 -25 4 -1 39 -17 78 -36 38 -19 76 -35 83
-35 8 0 17 -3 20 -7 8 -7 96 -40 132 -48 6 -1 26 -7 45 -13 45 -13 79 -20 215
-43 66 -12 432 -14 2030 -14 1073 0 1973 3 2000 7 90 13 109 16 180 33 39 9
77 18 85 20 8 2 15 4 15 5 0 1 10 3 22 6 11 2 47 14 80 26 32 12 60 23 63 23
11 1 79 33 159 74 47 24 96 49 108 55 13 6 23 14 23 19 0 4 5 7 11 7 11 0 149
97 207 147 75 63 196 188 260 271 73 92 152 212 152 230 0 6 4 12 8 14 21 8
138 283 163 383 5 22 11 45 13 50 10 35 32 151 44 230 9 64 9 4907 0 4960 -4
22 -11 56 -14 75 -4 19 -8 44 -10 55 -7 50 -61 239 -84 290 -5 11 -23 53 -40
94 -18 41 -41 89 -51 108 -10 18 -29 50 -40 71 -105 184 -288 392 -464 523
-44 33 -88 67 -98 75 -9 8 -20 14 -23 14 -3 0 -18 8 -32 19 -15 10 -74 42
-132 71 -58 29 -113 57 -124 62 -10 5 -26 11 -35 13 -9 2 -29 9 -46 16 -16 6
-36 14 -42 16 -7 1 -19 5 -25 6 -7 2 -20 6 -28 10 -28 10 -135 36 -175 43 -22
4 -76 12 -120 19 -62 10 -508 13 -2001 14 -1056 0 -1923 -1 -1925 -3z"/>
</g>
</svg>
