<?xml version="1.0" encoding="UTF-8" standalone="no"?>
<!-- Created with Inkscape (http://www.inkscape.org/) -->

<svg
   width="256"
   height="62.265461"
   viewBox="0 0 67.733329 16.474404"
   version="1.1"
   id="svg1"
   xml:space="preserve"
   inkscape:version="1.3 (0e150ed, 2023-07-21)"
   sodipodi:docname="witz-des-tages-logo-light-full.svg"
   xmlns:inkscape="http://www.inkscape.org/namespaces/inkscape"
   xmlns:sodipodi="http://sodipodi.sourceforge.net/DTD/sodipodi-0.dtd"
   xmlns="http://www.w3.org/2000/svg"
   xmlns:svg="http://www.w3.org/2000/svg"><sodipodi:namedview
     id="namedview1"
     pagecolor="#ffffff"
     bordercolor="#000000"
     borderopacity="0.25"
     inkscape:showpageshadow="2"
     inkscape:pageopacity="0.0"
     inkscape:pagecheckerboard="true"
     inkscape:deskcolor="#d1d1d1"
     inkscape:document-units="mm"
     inkscape:clip-to-page="false"
     labelstyle="default"
     inkscape:zoom="2.5764783"
     inkscape:cx="135.26215"
     inkscape:cy="-18.047891"
     inkscape:window-width="1920"
     inkscape:window-height="1212"
     inkscape:window-x="424"
     inkscape:window-y="25"
     inkscape:window-maximized="0"
     inkscape:current-layer="g3" /><defs
     id="defs1"><rect
       x="55.712746"
       y="37.873688"
       width="158.60915"
       height="35.281143"
       id="rect3" /><rect
       x="80.412979"
       y="43.911522"
       width="131.73457"
       height="59.280556"
       id="rect1" /><rect
       x="55.712746"
       y="37.873688"
       width="194.28726"
       height="78.369324"
       id="rect3-0" /><rect
       x="55.712746"
       y="37.873688"
       width="158.60915"
       height="35.281143"
       id="rect3-7" /><rect
       x="55.712746"
       y="37.873688"
       width="158.60915"
       height="35.281143"
       id="rect3-4" /><rect
       x="55.712746"
       y="37.873688"
       width="158.60915"
       height="35.281143"
       id="rect3-7-4" /></defs><g
     inkscape:label="Ebene 1"
     inkscape:groupmode="layer"
     id="layer1"
     transform="translate(-0.52916876,-10.474044)"><g
       id="g3"
       transform="matrix(1.5088942,0,0,1.5088942,-14.040021,-8.9567136)"><path
         d="m 62.580078,60.369793 q -1.875,0 -3.269531,-0.820312 -1.382813,-0.832032 -2.15625,-2.296875 -0.761719,-1.464844 -0.761719,-3.339844 0,-1.898438 0.773438,-3.351563 0.785156,-1.464843 2.15625,-2.296875 1.371093,-0.832031 3.140625,-0.832031 1.371093,0 2.484375,0.46875 1.113281,0.457031 1.921875,1.324219 0.808593,0.855469 1.242187,2.027344 0.445313,1.171875 0.445313,2.589843 v 0.925782 H 57.623047 v -2.203125 h 9.269531 l -1.558594,0.527343 q 0,-0.9375 -0.339843,-1.617187 -0.339844,-0.679688 -0.972657,-1.042969 -0.621093,-0.375 -1.488281,-0.375 -0.855469,0 -1.476562,0.375 -0.621094,0.363281 -0.960938,1.042969 -0.339844,0.679687 -0.339844,1.617187 v 1.5 q 0,0.960938 0.339844,1.6875 0.351563,0.714844 1.007813,1.113282 0.65625,0.386718 1.582031,0.386718 0.679687,0 1.195312,-0.1875 0.527344,-0.199218 0.878907,-0.550781 0.363281,-0.363281 0.515625,-0.84375 h 3.152343 q -0.222656,1.230469 -1.042968,2.167969 -0.820313,0.9375 -2.0625,1.476562 -1.242188,0.527344 -2.742188,0.527344 z m 12.222656,0.02344 q -1.605468,0 -2.859375,-0.492188 -1.253906,-0.503906 -2.003906,-1.441406 -0.75,-0.9375 -0.867187,-2.261719 h 3.398437 q 0.09375,0.808594 0.679688,1.265625 0.585937,0.457031 1.59375,0.457031 0.960937,0 1.5,-0.363281 0.550781,-0.363281 0.550781,-0.9375 0,-0.492187 -0.421875,-0.796875 -0.410156,-0.304687 -1.171875,-0.445312 l -2.167969,-0.421875 q -1.804687,-0.351563 -2.742187,-1.265625 -0.9375,-0.914063 -0.9375,-2.34375 0,-1.171875 0.632812,-2.050782 0.644531,-0.878906 1.816406,-1.359375 1.183594,-0.480468 2.800782,-0.480468 1.605468,0 2.800781,0.515625 1.195312,0.503906 1.863281,1.441406 0.679688,0.9375 0.714844,2.226562 h -3.199219 q -0.01172,-0.75 -0.585937,-1.242187 -0.574219,-0.492188 -1.5,-0.492188 -0.890625,0 -1.394532,0.386719 -0.503906,0.375 -0.503906,0.925781 0,0.480469 0.398438,0.785157 0.398437,0.304687 1.101562,0.457031 l 2.34375,0.457031 q 1.875,0.363281 2.753906,1.195313 0.890625,0.820312 0.890625,2.191406 0,1.230469 -0.703125,2.15625 -0.691406,0.914062 -1.933593,1.429687 -1.230469,0.503907 -2.847657,0.503907 z"
         id="text3"
         style="font-weight:bold;font-size:24px;font-family:Inter;-inkscape-font-specification:'Inter Bold';letter-spacing:-0.75px;white-space:pre;stroke:#000000;stroke-width:0.5"
         transform="matrix(0.26458333,0,0,0.26458333,15.692729,6.4916523)"
         aria-label="es" /><path
         d="m 63.177734,60.088543 h -4.511718 v -3.035156 h 4.324218 q 1.757813,0 2.90625,-0.65625 1.148438,-0.667969 1.710938,-1.933594 0.5625,-1.277344 0.5625,-3.117187 0,-1.839844 -0.5625,-3.105469 -0.5625,-1.265625 -1.710938,-1.921875 -1.136718,-0.65625 -2.871093,-0.65625 h -4.441407 v -3.035156 h 4.664063 q 2.625,0 4.546875,1.066406 1.921875,1.054687 2.964844,3.011719 1.042968,1.957031 1.042968,4.640625 0,2.683593 -1.042968,4.652343 -1.042969,1.957032 -2.976563,3.023438 -1.921875,1.066406 -4.605469,1.066406 z M 60.623047,42.627606 V 60.088543 H 57.013672 V 42.627606 Z"
         id="text3-7"
         style="font-weight:bold;font-size:24px;font-family:Inter;-inkscape-font-specification:'Inter Bold';letter-spacing:-0.75px;white-space:pre;stroke:#000000;stroke-width:0.5"
         transform="matrix(0.11682982,0.23739236,-0.23739236,0.11682982,32.728262,-0.90493924)"
         aria-label="D" /><path
         d="m 60.505859,60.088543 -4.6875,-17.460937 h 3.84375 l 2.050782,8.671875 q 0.246093,1.078125 0.46875,2.15625 0.222656,1.078125 0.421875,2.15625 0.210937,1.078125 0.398437,2.167968 h -0.714844 q 0.210938,-1.089843 0.433594,-2.167968 0.222656,-1.078125 0.457031,-2.15625 0.234375,-1.078125 0.492188,-2.15625 l 2.167969,-8.671875 h 3.679687 l 2.144531,8.671875 q 0.257813,1.078125 0.492188,2.15625 0.246094,1.078125 0.46875,2.15625 0.222656,1.078125 0.433594,2.167968 h -0.738282 q 0.199219,-1.089843 0.398438,-2.167968 0.210937,-1.078125 0.433594,-2.15625 0.234375,-1.078125 0.46875,-2.15625 l 2.050781,-8.671875 h 3.855469 l -4.699219,17.460937 h -4.019531 l -2.484375,-9.527344 q -0.257813,-1.042968 -0.527344,-2.320312 -0.257813,-1.277344 -0.621094,-2.871094 h 0.984375 q -0.351562,1.59375 -0.609375,2.871094 -0.257812,1.277344 -0.539062,2.320312 l -2.460938,9.527344 z m 19.59375,0 v -12.375 h 3.457032 v 12.375 z m 1.722657,-13.933594 q -0.855469,0 -1.417969,-0.515625 -0.5625,-0.527343 -0.5625,-1.324218 0,-0.796875 0.5625,-1.3125 0.5625,-0.527344 1.40625,-0.527344 0.855469,0 1.417969,0.527344 0.5625,0.515625 0.5625,1.3125 0,0.796875 -0.5625,1.324218 -0.5625,0.515625 -1.40625,0.515625 z m 10.706268,1.558594 v 2.707031 H 84.40744 v -2.707031 z m -5.988281,-3.375 h 3.457031 v 11.929688 q 0,0.621093 0.246094,0.867187 0.257812,0.246094 0.960937,0.246094 0.292969,0 0.691406,0 0.410157,0 0.632813,0 v 2.707031 q -0.316406,0 -0.878906,0 -0.5625,0 -1.136719,0 -2.039063,0 -3.011719,-0.796875 -0.960937,-0.796875 -0.960937,-2.484375 z m 6.878906,15.75 v -2.320312 l 6.140625,-7.277344 v -0.03516 h -6.140625 v -2.742188 h 10.207031 v 2.449219 l -6.011719,7.160156 v 0.03516 h 6.105469 v 2.730469 z"
         id="text3-3"
         style="font-weight:bold;font-size:24px;font-family:Inter;-inkscape-font-specification:'Inter Bold';letter-spacing:-0.75px;white-space:pre;stroke:#000000;stroke-width:0.5"
         transform="matrix(0.26458333,0,0,0.26458333,-4.345524,6.5319599)"
         aria-label="Witz" /><path
         d="m 63.177734,60.088543 h -4.511718 v -3.035156 h 4.324218 q 1.757813,0 2.90625,-0.65625 1.148438,-0.667969 1.710938,-1.933594 0.5625,-1.277344 0.5625,-3.117187 0,-1.839844 -0.5625,-3.105469 -0.5625,-1.265625 -1.710938,-1.921875 -1.136718,-0.65625 -2.871093,-0.65625 h -4.441407 v -3.035156 h 4.664063 q 2.625,0 4.546875,1.066406 1.921875,1.054687 2.964844,3.011719 1.042968,1.957031 1.042968,4.640625 0,2.683593 -1.042968,4.652343 -1.042969,1.957032 -2.976563,3.023438 -1.921875,1.066406 -4.605469,1.066406 z M 60.623047,42.627606 V 60.088543 H 57.013672 V 42.627606 Z m 18.035156,17.742187 q -1.875,0 -3.269531,-0.820312 -1.382813,-0.832032 -2.15625,-2.296875 -0.761719,-1.464844 -0.761719,-3.339844 0,-1.898438 0.773438,-3.351563 0.785156,-1.464843 2.15625,-2.296875 1.371093,-0.832031 3.140625,-0.832031 1.371093,0 2.484375,0.46875 1.113281,0.457031 1.921875,1.324219 0.808593,0.855469 1.242187,2.027344 0.445313,1.171875 0.445313,2.589843 v 0.925782 H 73.701172 v -2.203125 h 9.269531 l -1.558594,0.527343 q 0,-0.9375 -0.339843,-1.617187 -0.339844,-0.679688 -0.972657,-1.042969 -0.621093,-0.375 -1.488281,-0.375 -0.855469,0 -1.476562,0.375 -0.621094,0.363281 -0.960938,1.042969 -0.339844,0.679687 -0.339844,1.617187 v 1.5 q 0,0.960938 0.339844,1.6875 0.351563,0.714844 1.007813,1.113282 0.65625,0.386718 1.582031,0.386718 0.679687,0 1.195312,-0.1875 0.527344,-0.199218 0.878907,-0.550781 0.363281,-0.363281 0.515625,-0.84375 h 3.152343 q -0.222656,1.230469 -1.042968,2.167969 -0.820313,0.9375 -2.0625,1.476562 -1.242188,0.527344 -2.742188,0.527344 z m 7.078125,-0.28125 v -12.375 h 3.328125 v 2.109375 h 0.03516 q 0.339844,-1.113281 1.066407,-1.652344 0.726562,-0.539062 1.957031,-0.539062 0.304687,0 0.550781,0.01172 0.257813,0 0.46875,0.01172 v 2.941407 q -0.1875,-0.01172 -0.621094,-0.03516 -0.421875,-0.02344 -0.867187,-0.02344 -0.703125,0 -1.265625,0.328125 -0.5625,0.316406 -0.878906,0.949219 -0.316407,0.632812 -0.316407,1.570312 v 6.703125 z"
         id="text3-3-3"
         style="font-weight:bold;font-size:24px;font-family:Inter;-inkscape-font-specification:'Inter Bold';letter-spacing:-0.75px;white-space:pre;stroke:#000000;stroke-width:0.5"
         transform="matrix(0.26458333,0,0,0.26458333,-4.6617837,1.6650736)"
         aria-label="Der" /><path
         d="m 56.240234,45.721356 v -3.09375 h 14.191407 v 3.09375 H 65.146484 V 60.088543 H 61.537109 V 45.721356 Z M 72.64415,60.299481 q -1.230469,0 -2.191406,-0.410157 -0.960938,-0.410156 -1.511719,-1.230468 -0.550781,-0.832032 -0.550781,-2.0625 0,-1.042969 0.386718,-1.734375 0.386719,-0.703125 1.054688,-1.125 0.679687,-0.433594 1.546875,-0.65625 0.878906,-0.222657 1.839844,-0.304688 1.136718,-0.117187 1.804687,-0.222656 0.667969,-0.105469 0.960938,-0.304688 0.292968,-0.199218 0.292968,-0.597656 v -0.08203 q 0,-0.457031 -0.246093,-0.796875 -0.246094,-0.351563 -0.703125,-0.550781 -0.445313,-0.199219 -1.078125,-0.199219 -0.632813,0 -1.125,0.199219 -0.480469,0.199218 -0.761719,0.5625 -0.28125,0.363281 -0.328125,0.84375 h -3.246094 q 0.08203,-1.277344 0.75,-2.214844 0.679688,-0.9375 1.898438,-1.441406 1.21875,-0.515625 2.917968,-0.515625 1.265625,0 2.261719,0.292968 0.996094,0.28125 1.675781,0.832032 0.691407,0.550781 1.042969,1.335937 0.351563,0.785156 0.351563,1.78125 v 8.390625 h -3.375 v -1.746094 h -0.04687 q -0.328125,0.609375 -0.808594,1.042969 -0.480469,0.433594 -1.171875,0.679688 -0.691406,0.234375 -1.640625,0.234375 z m 0.960937,-2.402344 q 0.832032,0 1.429688,-0.304688 0.609375,-0.304687 0.9375,-0.832031 0.328125,-0.527344 0.328125,-1.195312 v -1.242188 q -0.152344,0.08203 -0.398438,0.164063 -0.246093,0.07031 -0.574218,0.140625 -0.328125,0.05859 -0.714844,0.128906 -0.386719,0.07031 -0.796875,0.128906 -0.597656,0.09375 -1.078125,0.292969 -0.480469,0.1875 -0.761719,0.515625 -0.28125,0.316406 -0.28125,0.808594 0,0.433593 0.234375,0.75 0.234375,0.316406 0.667969,0.480468 0.433594,0.164063 1.007812,0.164063 z m 13.617188,7.253906 q -1.757813,0 -2.988281,-0.503906 -1.21875,-0.492188 -1.921875,-1.394531 -0.691407,-0.902344 -0.867188,-2.109375 h 3.328125 q 0.128906,0.46875 0.457031,0.796875 0.339844,0.328125 0.84375,0.492187 0.503907,0.175781 1.148438,0.175781 1.265625,0 1.945312,-0.691406 0.691407,-0.691406 0.691407,-2.027344 v -1.898437 h -0.01172 q -0.363281,0.726562 -0.914063,1.195312 -0.539062,0.46875 -1.242187,0.691407 -0.691406,0.222656 -1.5,0.222656 -1.617188,0 -2.824219,-0.808594 -1.207031,-0.808594 -1.875,-2.226562 -0.65625,-1.417969 -0.65625,-3.257813 0,-1.863281 0.667969,-3.292969 0.679687,-1.441406 1.875,-2.25 1.207031,-0.808593 2.789062,-0.808593 0.808594,0 1.488282,0.222656 0.691406,0.222656 1.242187,0.679687 0.5625,0.457032 0.949219,1.148438 h 0.01172 v -1.792969 h 3.410156 v 11.894531 q 0,1.957032 -0.761719,3.175782 -0.761719,1.230468 -2.132812,1.792968 -1.359375,0.574219 -3.152344,0.574219 z M 87.08165,57.334637 q 0.878906,0 1.523437,-0.433594 0.65625,-0.445312 1.019532,-1.253906 0.363281,-0.808594 0.363281,-1.886719 0,-1.078125 -0.363281,-1.875 -0.363282,-0.808594 -1.019532,-1.242187 -0.644531,-0.445313 -1.523437,-0.445313 -0.832031,0 -1.453125,0.421875 -0.621094,0.410156 -0.972656,1.207031 -0.339844,0.796875 -0.339844,1.933594 0,1.136719 0.339844,1.933594 0.351562,0.796875 0.972656,1.21875 0.621094,0.421875 1.453125,0.421875 z m 13.53516,3.035156 q -1.875004,0 -3.269535,-0.820312 -1.382813,-0.832032 -2.15625,-2.296875 -0.761719,-1.464844 -0.761719,-3.339844 0,-1.898438 0.773438,-3.351563 0.785156,-1.464843 2.15625,-2.296875 1.371093,-0.832031 3.140626,-0.832031 1.37109,0 2.48437,0.46875 1.11328,0.457031 1.92188,1.324219 0.80859,0.855469 1.24219,2.027344 0.44531,1.171875 0.44531,2.589843 v 0.925782 H 95.659775 v -2.203125 h 9.269535 l -1.5586,0.527343 q 0,-0.9375 -0.33984,-1.617187 -0.33985,-0.679688 -0.97266,-1.042969 -0.62109,-0.375 -1.48828,-0.375 -0.855468,0 -1.476561,0.375 -0.621094,0.363281 -0.960938,1.042969 -0.339844,0.679687 -0.339844,1.617187 v 1.5 q 0,0.960938 0.339844,1.6875 0.351563,0.714844 1.007813,1.113282 0.65625,0.386718 1.582026,0.386718 0.67969,0 1.19532,-0.1875 0.52734,-0.199218 0.8789,-0.550781 0.36328,-0.363281 0.51563,-0.84375 h 3.15234 q -0.22265,1.230469 -1.04297,2.167969 -0.82031,0.9375 -2.0625,1.476562 -1.24218,0.527344 -2.74218,0.527344 z m 12.22265,0.02344 q -1.60547,0 -2.85937,-0.492188 -1.25391,-0.503906 -2.00391,-1.441406 -0.75,-0.9375 -0.86719,-2.261719 h 3.39844 q 0.0937,0.808594 0.67969,1.265625 0.58594,0.457031 1.59375,0.457031 0.96094,0 1.5,-0.363281 0.55078,-0.363281 0.55078,-0.9375 0,-0.492187 -0.42188,-0.796875 -0.41015,-0.304687 -1.17187,-0.445312 l -2.16797,-0.421875 q -1.80469,-0.351563 -2.74219,-1.265625 -0.9375,-0.914063 -0.9375,-2.34375 0,-1.171875 0.63282,-2.050782 0.64453,-0.878906 1.8164,-1.359375 1.1836,-0.480468 2.80078,-0.480468 1.60547,0 2.80078,0.515625 1.19532,0.503906 1.86329,1.441406 0.67968,0.9375 0.71484,2.226562 h -3.19922 q -0.0117,-0.75 -0.58594,-1.242187 -0.57422,-0.492188 -1.5,-0.492188 -0.89062,0 -1.39453,0.386719 -0.5039,0.375 -0.5039,0.925781 0,0.480469 0.39843,0.785157 0.39844,0.304687 1.10157,0.457031 l 2.34375,0.457031 q 1.875,0.363281 2.7539,1.195313 0.89063,0.820312 0.89063,2.191406 0,1.230469 -0.70313,2.15625 -0.6914,0.914062 -1.93359,1.429687 -1.23047,0.503907 -2.84766,0.503907 z"
         id="text3-5"
         style="font-weight:bold;font-size:24px;font-family:Inter;-inkscape-font-specification:'Inter Bold';letter-spacing:-0.75px;white-space:pre;stroke:#000000;stroke-width:0.5"
         transform="matrix(0.26458333,0,0,0.26458333,22.470867,6.4916521)"
         aria-label="Tages" /><path
         d="m 28.823897,14.829444 c -0.453507,1.048 -0.885987,1.862631 -1.29747,2.443855 1.143882,-0.20254 2.007159,-0.434407 2.589914,-0.695721"
         stroke="#000000"
         stroke-opacity="0.9"
         stroke-width="1.14316"
         stroke-linecap="round"
         stroke-linejoin="round"
         id="path3-1"
         style="mix-blend-mode:normal;fill:none;stroke:#8b5cf6;stroke-width:0.861558;stroke-dasharray:none;stroke-opacity:0.898039" /><path
         d="m 24.145603,17.288184 c 3.104318,1.093249 3.22982,-0.662893 -0.316464,2.228675"
         stroke="#000000"
         stroke-opacity="0.9"
         stroke-width="1.08047"
         stroke-linecap="round"
         stroke-linejoin="round"
         id="path2-5"
         style="fill:none;stroke:#8b5cf6;stroke-width:0.861558;stroke-dasharray:none;stroke-opacity:0.898039" /></g></g></svg>
